<svg width="793" height="553" viewBox="0 0 793 553" fill="none" xmlns="http://www.w3.org/2000/svg">
<path d="M767.534 552.418H24.9009C18.2968 552.418 11.9631 549.795 7.2933 545.125C2.62348 540.455 0 534.121 0 527.517C269.205 496.231 533.35 496.231 792.435 527.517C792.435 534.121 789.812 540.455 785.142 545.125C780.472 549.795 774.139 552.418 767.534 552.418Z" fill="#2F2E41"/>
<path d="M792.435 528.982L0 527.517L91.8405 372.985L92.2799 372.253V31.6812C92.2796 27.5474 93.0935 23.454 94.6753 19.6348C96.2571 15.8156 98.5757 12.3454 101.499 9.42238C104.422 6.49934 107.892 4.18072 111.711 2.59894C115.53 1.01716 119.624 0.203207 123.758 0.203552H664.284C668.417 0.203211 672.511 1.01717 676.33 2.59895C680.149 4.18073 683.619 6.49935 686.542 9.42239C689.465 12.3454 691.784 15.8156 693.366 19.6348C694.948 23.454 695.762 27.5474 695.761 31.6812V374.596L792.435 528.982Z" fill="#3F3D56"/>
<path d="M123.04 22.1749C120.321 22.178 117.715 23.2592 115.793 25.1814C113.871 27.1036 112.79 29.7098 112.787 32.4283V342.957C112.79 345.676 113.871 348.282 115.793 350.204C117.715 352.126 120.322 353.208 123.04 353.211H669.396C672.114 353.208 674.72 352.126 676.642 350.204C678.564 348.282 679.646 345.676 679.649 342.957V32.4283C679.646 29.7099 678.564 27.1037 676.642 25.1816C674.72 23.2594 672.114 22.1781 669.396 22.1749H123.04Z" fill="#2E2E2E"/>
<path d="M126.631 394.224C125.791 394.226 124.968 394.467 124.261 394.92C123.554 395.373 122.991 396.019 122.638 396.782L94.3394 458.302C94.0313 458.971 93.8965 459.707 93.9475 460.443C93.9985 461.178 94.2335 461.888 94.6311 462.509C95.0286 463.129 95.5758 463.64 96.2223 463.994C96.8689 464.347 97.594 464.533 98.331 464.533H693.442C694.191 464.533 694.928 464.341 695.582 463.976C696.236 463.612 696.786 463.086 697.18 462.448C697.574 461.811 697.798 461.084 697.831 460.336C697.865 459.587 697.707 458.843 697.371 458.173L666.611 396.653C666.249 395.922 665.688 395.307 664.994 394.877C664.299 394.448 663.498 394.222 662.682 394.224L126.631 394.224Z" fill="#2F2E41"/>
<path d="M335.526 476.251C334.56 476.252 333.621 476.571 332.854 477.158C332.088 477.746 331.536 478.57 331.283 479.502L324.185 505.868C324.009 506.519 323.986 507.202 324.117 507.864C324.248 508.525 324.529 509.148 324.94 509.683C325.35 510.219 325.878 510.653 326.483 510.951C327.087 511.25 327.753 511.405 328.427 511.405H463.425C464.126 511.405 464.816 511.237 465.439 510.916C466.061 510.595 466.598 510.13 467.004 509.559C467.41 508.989 467.674 508.329 467.774 507.636C467.873 506.942 467.806 506.235 467.576 505.573L458.45 479.207C458.151 478.344 457.59 477.596 456.846 477.066C456.102 476.536 455.211 476.251 454.297 476.251L335.526 476.251Z" fill="#2F2E41"/>
<path d="M695.761 367.126V372.985H91.84L92.295 372.253V367.126H695.761Z" fill="#2F2E41"/>
<path d="M621.219 380.547C620.984 380.548 620.755 380.625 620.568 380.769C620.382 380.912 620.247 381.112 620.186 381.339L618.457 387.76C618.414 387.918 618.409 388.085 618.441 388.246C618.473 388.407 618.541 388.559 618.641 388.689C618.741 388.819 618.869 388.925 619.017 388.998C619.164 389.07 619.326 389.108 619.49 389.108H652.364C652.535 389.108 652.703 389.067 652.855 388.989C653.006 388.911 653.137 388.798 653.236 388.659C653.335 388.52 653.399 388.359 653.423 388.19C653.447 388.021 653.431 387.849 653.375 387.688L651.153 381.268C651.08 381.057 650.943 380.875 650.762 380.746C650.581 380.617 650.364 380.548 650.142 380.547H621.219Z" fill="#6C63FF"/>
<path d="M573.219 380.547C572.984 380.548 572.755 380.625 572.568 380.769C572.382 380.912 572.247 381.112 572.186 381.339L570.457 387.76C570.414 387.918 570.409 388.085 570.441 388.246C570.473 388.407 570.541 388.559 570.641 388.689C570.741 388.819 570.869 388.925 571.017 388.998C571.164 389.07 571.326 389.108 571.49 389.108H604.364C604.535 389.108 604.703 389.067 604.855 388.989C605.006 388.911 605.137 388.798 605.236 388.659C605.335 388.52 605.399 388.359 605.423 388.19C605.447 388.021 605.431 387.849 605.375 387.688L603.153 381.268C603.08 381.057 602.943 380.875 602.762 380.746C602.581 380.617 602.364 380.548 602.142 380.547H573.219Z" fill="#6C63FF"/>
<g clip-path="url(#clip0_2_350)">
<path d="M263.037 158.032H301.435V161.083H266.557V184.052H299.356V187.104H266.557V212.321H301.835V215.373H263.037L263.037 158.032ZM304.875 158.032H308.955L327.034 183.249L345.513 158.032L370.648 126L329.354 185.899L350.633 215.373H346.393L327.034 188.549L307.595 215.373H303.435L324.874 185.899L304.875 158.032ZM352.153 161.083V158.032H395.911V161.083H375.752V215.373H372.232V161.083H352.153ZM215 158.032H219.4L280.07 248.814L254.998 215.373L218.68 162.368L218.52 215.373H215V158.032ZM395.556 211.4C395.302 211.404 395.054 211.332 394.841 211.194C394.629 211.056 394.462 210.858 394.362 210.625C394.263 210.391 394.235 210.134 394.282 209.885C394.329 209.636 394.449 209.407 394.627 209.226C394.805 209.046 395.032 208.922 395.281 208.871C395.529 208.82 395.787 208.845 396.021 208.941C396.256 209.037 396.457 209.201 396.598 209.411C396.739 209.622 396.814 209.869 396.814 210.123C396.819 210.29 396.789 210.457 396.728 210.612C396.667 210.768 396.574 210.91 396.457 211.029C396.339 211.148 396.199 211.243 396.044 211.306C395.889 211.37 395.723 211.402 395.556 211.4V211.4ZM399.014 208.04H400.898C400.924 209.06 401.668 209.745 402.764 209.745C403.988 209.745 404.682 209.008 404.682 207.628V198.885H406.6V207.637C406.6 210.123 405.161 211.554 402.781 211.554C400.547 211.554 399.014 210.166 399.014 208.04V208.04ZM409.108 207.928H411.008C411.171 209.103 412.318 209.848 413.971 209.848C415.512 209.848 416.642 209.051 416.642 207.954C416.642 207.011 415.922 206.445 414.287 206.06L412.695 205.674C410.461 205.151 409.442 204.071 409.442 202.254C409.442 200.051 411.24 198.585 413.936 198.585C416.445 198.585 418.277 200.051 418.388 202.134H416.522C416.342 200.994 415.349 200.282 413.911 200.282C412.395 200.282 411.385 201.011 411.385 202.125C411.385 203.008 412.036 203.514 413.645 203.891L415.006 204.225C417.54 204.817 418.585 205.845 418.585 207.705C418.585 210.071 416.753 211.554 413.825 211.554C411.086 211.554 409.245 210.14 409.108 207.928V207.928Z" fill="#FFF5F5"/>
</g>
<path d="M523.721 155C509.117 155 499.989 162.302 496.338 176.907C501.815 169.604 508.204 166.866 515.506 168.692C519.672 169.733 522.65 172.756 525.946 176.102C531.316 181.552 537.53 187.86 551.103 187.86C565.707 187.86 574.835 180.558 578.486 165.953C573.009 173.256 566.62 175.994 559.318 174.168C555.152 173.127 552.174 170.104 548.878 166.758C543.509 161.308 537.294 155 523.721 155ZM496.338 187.86C481.734 187.86 472.607 195.162 468.956 209.767C474.432 202.464 480.822 199.726 488.124 201.552C492.29 202.593 495.268 205.616 498.564 208.962C503.933 214.412 510.148 220.72 523.721 220.72C538.325 220.72 547.452 213.418 551.103 198.813C545.627 206.116 539.238 208.854 531.936 207.028C527.77 205.987 524.792 202.964 521.496 199.618C516.126 194.168 509.912 187.86 496.338 187.86Z" fill="url(#paint0_linear_2_350)"/>
<defs>
<linearGradient id="paint0_linear_2_350" x1="466" y1="175.877" x2="560.601" y2="230.417" gradientUnits="userSpaceOnUse">
<stop stop-color="#2298BD"/>
<stop offset="1" stop-color="#0ED7B5"/>
</linearGradient>
<clipPath id="clip0_2_350">
<rect width="203.956" height="123.3" fill="white" transform="translate(215 126)"/>
</clipPath>
</defs>
</svg>
