<svg width="62" height="62" viewBox="0 0 62 62" fill="none" xmlns="http://www.w3.org/2000/svg">
<path d="M31 61.4762C47.8315 61.4762 61.4762 47.8315 61.4762 31C61.4762 14.1685 47.8315 0.523804 31 0.523804C14.1685 0.523804 0.523804 14.1685 0.523804 31C0.523804 47.8315 14.1685 61.4762 31 61.4762Z" fill="url(#paint0_radial_12_2)"/>
<path opacity="0.5" d="M31 61.4762C47.8315 61.4762 61.4762 47.8315 61.4762 31C61.4762 14.1685 47.8315 0.523804 31 0.523804C14.1685 0.523804 0.523804 14.1685 0.523804 31C0.523804 47.8315 14.1685 61.4762 31 61.4762Z" fill="url(#paint1_radial_12_2)"/>
<path d="M31 61.4762C47.8315 61.4762 61.4762 47.8315 61.4762 31C61.4762 14.1685 47.8315 0.523804 31 0.523804C14.1685 0.523804 0.523804 14.1685 0.523804 31C0.523804 47.8315 14.1685 61.4762 31 61.4762Z" fill="url(#paint2_radial_12_2)"/>
<path d="M24.4096 16.4857C24.3334 15.0191 22.962 14.181 20.6953 14.2953C18.7715 14.4096 14.6001 15.9143 11.9334 20.5619C11.4381 21.4191 12.2953 21.8381 12.7905 21.2667C14.4858 19.3429 19.1524 16.7334 22.9239 17.0191C24.4477 17.1334 24.4096 16.4857 24.4096 16.4857Z" fill="url(#paint3_linear_12_2)"/>
<path d="M21.0572 32.2951C22.6773 32.2951 23.9906 30.3081 23.9906 27.857C23.9906 25.4059 22.6773 23.4189 21.0572 23.4189C19.4372 23.4189 18.1239 25.4059 18.1239 27.857C18.1239 30.3081 19.4372 32.2951 21.0572 32.2951Z" fill="url(#paint4_radial_12_2)"/>
<path d="M21.0572 24.9236C22.3144 24.9236 23.4191 26.0284 23.9906 27.6474C23.9525 25.2474 22.6572 23.3236 21.0572 23.3236C19.4572 23.3236 18.162 25.2474 18.1239 27.6474C18.6953 26.0284 19.781 24.9236 21.0572 24.9236Z" fill="url(#paint5_linear_12_2)"/>
<path d="M40.9429 32.2951C42.5629 32.2951 43.8762 30.3081 43.8762 27.857C43.8762 25.4059 42.5629 23.4189 40.9429 23.4189C39.3228 23.4189 38.0095 25.4059 38.0095 27.857C38.0095 30.3081 39.3228 32.2951 40.9429 32.2951Z" fill="url(#paint6_radial_12_2)"/>
<path d="M37.5904 16.5999C37.6666 15.1333 39.038 14.2952 41.3047 14.4095C43.2285 14.5238 47.3999 16.0285 50.0666 20.6761C50.5618 21.5333 49.7047 21.9523 49.2095 21.3809C47.5142 19.4571 42.8476 16.8476 39.0761 17.1333C37.5523 17.2476 37.5904 16.5999 37.5904 16.5999Z" fill="url(#paint7_linear_12_2)"/>
<path d="M40.9429 25.0384C39.6857 25.0384 38.5809 26.1431 38.0095 27.7622C38.0476 25.3622 39.3429 23.4384 40.9429 23.4384C42.5429 23.4384 43.8381 25.3622 43.8762 27.7622C43.3048 26.1431 42.219 25.0384 40.9429 25.0384Z" fill="url(#paint8_linear_12_2)"/>
<path d="M31 42.276C39.9333 42.276 42.8095 51.1141 40.0667 49.7237C36.4095 47.876 34.1048 47.6856 31 47.6856C27.8952 47.6856 25.5714 47.857 21.9333 49.7237C19.1905 51.1141 22.0666 42.276 31 42.276Z" fill="#643800"/>
<path d="M31 43.8379C36.2762 43.8379 39.6095 46.8094 41.0571 49.2856C41.1333 47.4951 37.8571 42.276 31 42.276C24.1238 42.276 20.8476 47.4951 20.9428 49.2856C22.3904 46.8284 25.7238 43.8379 31 43.8379Z" fill="url(#paint9_linear_12_2)"/>
<path d="M19.038 46.6762C20.8476 51.2096 17.6857 55.3239 13.9714 56.0096C10.2571 56.6953 6.19992 54.2191 5.91422 49.5715C5.28572 38.962 17.5523 32.4858 17.5523 32.4858C17.5523 32.4858 16.5999 40.562 19.038 46.6762Z" fill="url(#paint10_linear_12_2)"/>
<path d="M14.0856 47.4953C12.619 52.0667 5.78091 52.3524 6.00941 47.0762C5.89511 47.8762 5.87611 48.7143 5.91421 49.5715C6.18091 54.2191 10.2571 56.6953 13.9713 56.0096C17.6856 55.3239 20.8475 51.2096 19.038 46.6762C16.5999 40.562 17.5713 32.4858 17.5713 32.4858C13.1523 42.0477 14.8094 45.2477 14.0856 47.4953Z" fill="url(#paint11_linear_12_2)"/>
<path d="M16.7333 44.1048C18.1428 51.9905 9.26661 55.1143 6.06671 50.6572C6.84761 54.6001 10.5619 56.6572 13.9714 56.0096C17.6857 55.3239 20.8476 51.2096 19.0381 46.6762C16.6 40.562 17.5714 32.4858 17.5714 32.4858C17.5714 32.4858 15.5714 37.6477 16.7333 44.1048Z" fill="url(#paint12_linear_12_2)"/>
<path d="M17.0761 48.8477C15.6475 54.7715 9.15229 54.6763 6.35229 51.7429C6.94279 53.362 8.0856 54.581 9.4571 55.3239C16.6761 57.5715 20.1237 50.1429 19.1142 46.9429C19.0761 46.8667 19.057 46.7715 19.019 46.6953C18.9809 46.581 18.9237 46.4667 18.8856 46.3524C16.619 40.2953 17.5523 32.5048 17.5523 32.5048C15.2666 41.3239 18.8285 41.6096 17.0761 48.8477Z" fill="url(#paint13_linear_12_2)"/>
<path d="M19.038 46.6762C20.8476 51.2096 17.6857 55.3239 13.9714 56.0096C10.2571 56.6953 6.19992 54.2191 5.91422 49.5715C5.28572 38.962 17.5523 32.4858 17.5523 32.4858C17.5523 32.4858 16.5999 40.562 19.038 46.6762Z" fill="url(#paint14_radial_12_2)"/>
<defs>
<radialGradient id="paint0_radial_12_2" cx="0" cy="0" r="1" gradientUnits="userSpaceOnUse" gradientTransform="translate(25.0037 18.649) scale(36.7656)">
<stop stop-color="#FFE030"/>
<stop offset="1" stop-color="#FFB92E"/>
</radialGradient>
<radialGradient id="paint1_radial_12_2" cx="0" cy="0" r="1" gradientUnits="userSpaceOnUse" gradientTransform="translate(25.0037 18.649) scale(28.9251)">
<stop stop-color="#FFEA5F"/>
<stop offset="1" stop-color="#FFBC47" stop-opacity="0"/>
</radialGradient>
<radialGradient id="paint2_radial_12_2" cx="0" cy="0" r="1" gradientUnits="userSpaceOnUse" gradientTransform="translate(18.3211 45.9278) rotate(72.6921) scale(27.5316 14.8082)">
<stop stop-color="#EB672A" stop-opacity="0.5"/>
<stop offset="0.3462" stop-color="#DC641B" stop-opacity="0.2846"/>
<stop offset="0.8036" stop-color="#C25E00" stop-opacity="0"/>
</radialGradient>
<linearGradient id="paint3_linear_12_2" x1="18.1252" y1="19.2867" x2="17.9133" y2="15.4398" gradientUnits="userSpaceOnUse">
<stop offset="0.00132565" stop-color="#3C2200"/>
<stop offset="1" stop-color="#7A4400"/>
</linearGradient>
<radialGradient id="paint4_radial_12_2" cx="0" cy="0" r="1" gradientUnits="userSpaceOnUse" gradientTransform="translate(20.1598 27.974) rotate(73.8539) scale(4.30606 2.78596)">
<stop offset="0.00132565" stop-color="#7A4400"/>
<stop offset="1" stop-color="#643800"/>
</radialGradient>
<linearGradient id="paint5_linear_12_2" x1="21.05" y1="23.4017" x2="21.05" y2="27.5378" gradientUnits="userSpaceOnUse">
<stop offset="0.00132565" stop-color="#3C2200"/>
<stop offset="1" stop-color="#512D00"/>
</linearGradient>
<radialGradient id="paint6_radial_12_2" cx="0" cy="0" r="1" gradientUnits="userSpaceOnUse" gradientTransform="translate(40.0608 27.9747) rotate(73.8539) scale(4.30606 2.78595)">
<stop offset="0.00132565" stop-color="#7A4400"/>
<stop offset="1" stop-color="#643800"/>
</radialGradient>
<linearGradient id="paint7_linear_12_2" x1="43.8747" y1="19.3954" x2="44.0866" y2="15.5486" gradientUnits="userSpaceOnUse">
<stop offset="0.00132565" stop-color="#3C2200"/>
<stop offset="1" stop-color="#7A4400"/>
</linearGradient>
<linearGradient id="paint8_linear_12_2" x1="40.9501" y1="23.511" x2="40.9501" y2="27.647" gradientUnits="userSpaceOnUse">
<stop offset="0.00132565" stop-color="#3C2200"/>
<stop offset="1" stop-color="#512D00"/>
</linearGradient>
<linearGradient id="paint9_linear_12_2" x1="30.9996" y1="39.971" x2="30.9996" y2="47.0232" gradientUnits="userSpaceOnUse">
<stop offset="0.00132565" stop-color="#3C2200"/>
<stop offset="1" stop-color="#512D00"/>
</linearGradient>
<linearGradient id="paint10_linear_12_2" x1="2.18192" y1="38.5359" x2="22.7312" y2="48.285" gradientUnits="userSpaceOnUse">
<stop offset="0.0723628" stop-color="#17BBFE"/>
<stop offset="0.2085" stop-color="#D1F2FF"/>
<stop offset="0.668" stop-color="#80DAFE"/>
<stop offset="1" stop-color="#0099D6"/>
</linearGradient>
<linearGradient id="paint11_linear_12_2" x1="29.1088" y1="54.4352" x2="0.783129" y2="35.3423" gradientUnits="userSpaceOnUse">
<stop stop-color="#D1F2FF"/>
<stop offset="0.668" stop-color="#80DAFE"/>
<stop offset="1" stop-color="#0099D6"/>
</linearGradient>
<linearGradient id="paint12_linear_12_2" x1="4.91171" y1="34.0684" x2="23.8003" y2="56.4345" gradientUnits="userSpaceOnUse">
<stop offset="0.566" stop-color="#80DAFE"/>
<stop offset="1" stop-color="#0099D6"/>
</linearGradient>
<linearGradient id="paint13_linear_12_2" x1="6.46539" y1="34.9176" x2="21.5552" y2="55.2603" gradientUnits="userSpaceOnUse">
<stop offset="0.566" stop-color="#80DAFE"/>
<stop offset="1" stop-color="#0099D6"/>
</linearGradient>
<radialGradient id="paint14_radial_12_2" cx="0" cy="0" r="1" gradientUnits="userSpaceOnUse" gradientTransform="translate(11.3185 44.4251) rotate(-76.6192) scale(9.57048 5.63498)">
<stop stop-color="white" stop-opacity="0.45"/>
<stop offset="1" stop-color="white" stop-opacity="0"/>
</radialGradient>
</defs>
</svg>
